# xmcd
#
# Track frame offsets:
#	150
#	16387
#	37712
#	58285
#	70292
#	90510
#	106200
#	127887
#	145877
#	161580
#
# Disc length: 2438 seconds
#
# Revision: 0
# Processed by: cddbd v1.5.2PL0 Copyright (c) Steve Scherf et al.
# Submitted via: EasyCDDAExtractor 11.0.0.1
#
DISCID=7d09840a
DTITLE=Muslum Gurses - Sultanim
DYEAR=1997
DGENRE=Other
TTITLE0=Sultanim
TTITLE1=Nereden Cikti Bu Ayrilik
TTITLE2=Kul Yanarmi
TTITLE3=Yalniz Kaldim
TTITLE4=Vicdan Azabi
TTITLE5=Bu Da Gecer
TTITLE6=Isyanim Gecelere
TTITLE7=Icme Arkadas Bu Kadar
TTITLE8=Seni Ben Ellerin Olsun Diyemi Sevdim
TTITLE9=Can Dede
EXTD=
EXTT0=
EXTT1=
EXTT2=
EXTT3=
EXTT4=
EXTT5=
EXTT6=
EXTT7=
EXTT8=
EXTT9=
PLAYORDER=
